# xmcd
#
# Track frame offsets: 
#        150
#        10734
#        24965
#        39527
#        47705
#        56304
#        69950
#        76526
#        85985
#        91172
#
# Disc length: 1311 seconds
#
# Revision: 0
# Processed by: cddbd v1.5.2PL0 Copyright (c) Steve Scherf et al.
# Submitted via: ExactAudioCopy v0.99pb1
#
DISCID=61051d0a
DTITLE=Marcha soldado - Cantar e Brincar Vol 08
DYEAR=2008
DGENRE=A Cappella
TTITLE0=Marcha soldado
TTITLE1=Bambalão
TTITLE2=Davi
TTITLE3=Papagaio loro
TTITLE4=O sítio do seu Lobato
TTITLE5=Meu bom pastor
TTITLE6=Ai bota aqui o pézinho
TTITLE7=Como pode um peixe vivo
TTITLE8=A cobra não tem pé
TTITLE9=Posso ser um missionariozinho
EXTD=
EXTT0=
EXTT1=
EXTT2=
EXTT3=
EXTT4=
EXTT5=
EXTT6=
EXTT7=
EXTT8=
EXTT9=
PLAYORDER=
